# xmcd
#
# Track frame offsets:
#	150
#	17343
#	33593
#	48928
#	64055
#	81632
#	98816
#	115399
#	129666
#	144992
#	161171
#	177003
#	192990
#	207168
#	225371
#	242198
#	263638
#	293047
#
# Disc length: 3922 seconds
#
# Revision: 1
# Processed by: cddbd v1.5.2PL0 Copyright (c) Steve Scherf et al.
# Submitted via: audiograbber 1.83.01
#
DISCID=f90f5012
DTITLE=Chartbuster 5008-2 - 80's Country
DYEAR=1900
DGENRE=Karaoke
TTITLE0=The, Oak Ridge Boys - Elvira
TTITLE1=The, Ballamy Brothers - If I Said You Had A Beautiful Body (Would You H
TTITLE1=old It Against Me)
TTITLE2=Barbara, Mandrell - If Loving You Is Wrong (I Don't Wanna Be Right)
TTITLE3=Eddie, Rabbitt - I Love A Rainy Night
TTITLE4=Kenny, Rodgers - Lady
TTITLE5=Conway, Twitty - Don't Take It Away
TTITLE6=Dolly, Parton - Old Flames Can't Hold A Candle To You
TTITLE7=The, Bellamy Brothers - Do You Love As Good As You Look
TTITLE8=Johnny Lee - Lookin' For Love
TTITLE9=T.G. Sheppard - Do You Wanna Go To Heaven
TTITLE10=Sylvia - Nobody
TTITLE11=Alabama - Why Lady Why
TTITLE12=Charley, Pride - Mountain Of Love
TTITLE13=Ronnie, Milsap - Smokey Mountain Rain
TTITLE14=Alabama - Old Flame
TTITLE15=Charley, Pride - You're So Good When You're Bad
TTITLE16=Don, Williams - Lord, I Hope This Day Is Good
TTITLE17=dummy - dummy
EXTD=
EXTT0=
EXTT1=
EXTT2=
EXTT3=
EXTT4=
EXTT5=
EXTT6=
EXTT7=
EXTT8=
EXTT9=
EXTT10=
EXTT11=
EXTT12=
EXTT13=
EXTT14=
EXTT15=
EXTT16=
EXTT17=
PLAYORDER=
